<svg width="26" height="24" viewBox="0 0 26 24" fill="none" xmlns="http://www.w3.org/2000/svg">
<path d="M13.2154 0C6.44902 0 0.961792 5.50867 0.961792 12.3041C0.961792 17.7393 4.47288 22.3503 9.34429 23.9787C9.95705 24.092 10.1807 23.7121 10.1807 23.3858C10.1807 23.0932 10.17 22.3196 10.1639 21.2933C6.7554 22.0362 6.03541 19.6434 6.03541 19.6434C5.47933 18.2218 4.67509 17.8434 4.67509 17.8434C3.56141 17.0806 4.75781 17.0959 4.75781 17.0959C5.98792 17.1832 6.63438 18.3643 6.63438 18.3643C7.72815 20.2439 9.50361 19.7016 10.2021 19.3861C10.3124 18.591 10.6295 18.0487 10.9803 17.7408C8.25971 17.4298 5.39814 16.3744 5.39814 11.6607C5.39814 10.3173 5.87609 9.21891 6.66042 8.35799C6.53327 8.04701 6.11354 6.79546 6.77991 5.10272C6.77991 5.10272 7.80934 4.77184 10.1501 6.36347C11.1274 6.09079 12.1752 5.95445 13.2184 5.94986C14.2586 5.95599 15.3079 6.09079 16.2868 6.365C18.626 4.77337 19.6539 5.10425 19.6539 5.10425C20.3218 6.79852 19.9021 8.04855 19.7765 8.35952C20.5623 9.22044 21.0357 10.3188 21.0357 11.6623C21.0357 16.3882 18.171 17.4283 15.4412 17.7331C15.8809 18.1131 16.273 18.8637 16.273 20.0111C16.273 21.6563 16.2577 22.9829 16.2577 23.3858C16.2577 23.7152 16.4783 24.0981 17.1002 23.9771C21.964 22.3472 25.472 17.7377 25.472 12.3041C25.472 5.50867 19.9848 0 13.2154 0Z" fill="black"/>
</svg>
