<svg width="25" height="24" viewBox="0 0 25 24" fill="none" xmlns="http://www.w3.org/2000/svg">
<path d="M24.4063 7.05581C24.3499 5.78066 24.1437 4.9038 23.8483 4.14434C23.5435 3.33793 23.0748 2.61605 22.4605 2.01581C21.8602 1.40618 21.1337 0.932759 20.3366 0.632642C19.5725 0.337691 18.7008 0.131507 17.4252 0.0751468C16.1406 0.01409 15.7325 0 12.4744 0C9.21584 0 8.80817 0.01409 7.52786 0.0704501C6.25271 0.12681 5.37584 0.332994 4.61639 0.628415C3.80997 0.932759 3.08809 1.40196 2.48786 2.01628C1.87823 2.61605 1.40527 3.34309 1.10516 4.13965C0.809737 4.90427 0.603553 5.77597 0.547193 7.05112C0.486136 8.33566 0.472046 8.7438 0.472046 12.0023C0.472046 15.2609 0.486136 15.6686 0.542496 16.9484C0.598856 18.2236 0.80504 19.1004 1.10046 19.8599C1.40527 20.6663 1.8787 21.3882 2.48786 21.9884C3.08809 22.598 3.81467 23.0715 4.61169 23.3716C5.37584 23.667 6.24801 23.8732 7.52316 23.9296C8.80301 23.9859 9.21115 24 12.4697 24C15.7278 24 16.1359 23.9859 17.4158 23.9296C18.6909 23.8732 19.5678 23.667 20.3272 23.3716C21.9401 22.7479 23.2152 21.4727 23.8389 19.8599C24.1344 19.0957 24.3405 18.2236 24.3969 16.9484C24.4533 15.6686 24.4673 15.2604 24.4673 12.0023C24.4673 8.7438 24.4627 8.33613 24.4063 7.05581ZM22.2449 16.8549C22.1932 18.0272 21.9964 18.6599 21.832 19.0821C21.4286 20.1276 20.5992 20.9575 19.5532 21.3609C19.1315 21.5249 18.4937 21.7216 17.3261 21.7733C16.0603 21.8297 15.6803 21.8438 12.4782 21.8438C9.27596 21.8438 8.8913 21.8297 7.63025 21.7733C6.45796 21.7216 5.82531 21.5249 5.40308 21.3609C4.88269 21.1688 4.40927 20.864 4.02508 20.4653C3.6268 20.0759 3.32152 19.6072 3.12942 19.0868C2.96551 18.6646 2.76872 18.0272 2.71706 16.8596C2.6607 15.5939 2.64661 15.2139 2.64661 12.0117C2.64661 8.80955 2.6607 8.42489 2.71706 7.16384C2.76872 5.99155 2.96551 5.3589 3.12942 4.93714C3.32152 4.41675 3.6268 3.94333 4.02978 3.55867C4.41866 3.16039 4.88739 2.85558 5.40778 2.66301C5.82954 2.4991 6.46735 2.30231 7.63494 2.25065C8.9007 2.19429 9.28066 2.1802 12.4828 2.1802C15.6897 2.1802 16.0697 2.19429 17.3308 2.25065C18.503 2.30231 19.1357 2.4991 19.5579 2.66301C20.0783 2.85511 20.5517 3.15992 20.9359 3.55867C21.3347 3.94802 21.6395 4.41675 21.8316 4.93714C21.9955 5.3589 22.1923 5.99624 22.2444 7.16384C22.3008 8.42959 22.3149 8.80908 22.3149 12.0117C22.3153 15.2139 22.3012 15.5887 22.2449 16.8549Z" fill="black"/>
<path d="M12.4744 5.83704C9.07073 5.83704 6.30908 8.59821 6.30908 12.0024C6.30908 15.406 9.07073 18.1677 12.4744 18.1677C15.8781 18.1677 18.6397 15.406 18.6397 12.0024C18.6393 8.59821 15.8781 5.83704 12.4744 5.83704ZM12.4744 16.0016C10.266 16.0016 8.47519 14.2107 8.47519 12.0024C8.47519 9.79398 10.2665 8.00314 12.4744 8.00314C14.6828 8.00314 16.4736 9.79398 16.4736 12.0024C16.4736 14.2107 14.6823 16.0016 12.4744 16.0016Z" fill="black"/>
<path d="M20.3226 5.59322C20.3226 6.38836 19.6782 7.03228 18.883 7.03228C18.0884 7.03228 17.444 6.38789 17.444 5.59322C17.444 4.79807 18.0884 4.15369 18.883 4.15369C19.6782 4.15369 20.3226 4.79807 20.3226 5.59322Z" fill="black"/>
</svg>
