<svg width="25" height="24" viewBox="0 0 25 24" fill="none" xmlns="http://www.w3.org/2000/svg">
<path d="M23.6408 1.32095C22.761 0.441115 21.7014 0 20.4619 0H5.46164C4.22221 0 3.16257 0.441115 2.28274 1.32095C1.40291 2.20078 0.961792 3.26041 0.961792 4.49985V19.5001C0.961792 20.7396 1.40291 21.7992 2.28274 22.6791C3.16257 23.5589 4.22221 24 5.46164 24H20.4619C21.7014 24 22.761 23.5589 23.6408 22.6791C24.5207 21.7992 24.9618 20.7396 24.9618 19.5001V4.49985C24.9618 3.26041 24.5231 2.20078 23.6408 1.32095ZM8.27375 20.0947H4.66332V9.25142H8.27375V20.0947ZM7.94771 7.24243C7.57132 7.60204 7.07747 7.78184 6.46134 7.78184H6.44696C5.85241 7.78184 5.37054 7.60204 5.00135 7.24243C4.63215 6.88283 4.44756 6.43692 4.44756 5.9047C4.44756 5.3629 4.63695 4.91459 5.01813 4.56218C5.39931 4.20737 5.89077 4.03236 6.49491 4.03236C7.09904 4.03236 7.58331 4.20977 7.94771 4.56218C8.31211 4.91699 8.5015 5.3653 8.51109 5.9047C8.50869 6.43692 8.3217 6.88283 7.94771 7.24243ZM21.2603 20.0947H17.6498V14.2979C17.6498 12.6629 17.0457 11.8454 15.8374 11.8454C15.3795 11.8454 14.9936 11.9724 14.6819 12.2289C14.3678 12.4831 14.1353 12.7947 13.9795 13.1591C13.9052 13.3485 13.8692 13.6386 13.8692 14.0342V20.0971H10.2588C10.2899 13.5547 10.2899 9.93947 10.2588 9.25382H13.8668V10.7857C14.6268 9.59904 15.7032 9.0045 17.1008 9.0045C18.3499 9.0045 19.3568 9.41444 20.1167 10.2391C20.8767 11.0614 21.2579 12.2769 21.2579 13.8783V20.0947H21.2603Z" fill="black"/>
</svg>
