<svg width="31" height="24" viewBox="0 0 31 24" fill="none" xmlns="http://www.w3.org/2000/svg">
<path d="M30.0381 2.84135C28.9384 3.32308 27.7666 3.64269 26.545 3.79788C27.8018 3.04846 28.7611 1.87038 29.2122 0.450577C28.0403 1.14865 26.7466 1.64135 25.3679 1.91654C24.255 0.732692 22.6695 0 20.9391 0C17.5829 0 14.8805 2.72135 14.8805 6.05712C14.8805 6.53712 14.9209 6.99865 15.0208 7.43827C9.98155 7.1925 5.52157 4.77981 2.52573 1.10423C2.00246 2.01058 1.69577 3.04846 1.69577 4.16538C1.69577 6.2625 2.77698 8.12192 4.38839 9.19788C3.41461 9.17942 2.45874 8.89673 1.64956 8.45192C1.64956 8.47038 1.64956 8.49461 1.64956 8.51827C1.64956 11.4612 3.75075 13.9056 6.5069 14.4687C6.01366 14.6037 5.47537 14.6683 4.91744 14.6683C4.52931 14.6683 4.13772 14.6463 3.76981 14.565C4.5553 16.9633 6.78413 18.7263 9.43459 18.7835C7.3721 20.3954 4.75283 21.3663 1.91813 21.3663C1.42085 21.3663 0.944355 21.3444 0.467285 21.2833C3.15239 23.0123 6.33479 24 9.76669 24C20.9224 24 27.0215 14.7692 27.0215 6.76788C27.0215 6.50019 27.0123 6.24173 26.9996 5.985C28.2026 5.13231 29.2139 4.06731 30.0381 2.84135Z" fill="black"/>
</svg>
